<svg width="672" height="340" viewBox="0 0 672 340" fill="none" xmlns="http://www.w3.org/2000/svg">
<path d="M226.5 258.5H239.5V340H2.08616e-07V327L27.5 324C32.8333 323.333 36 322 37 320C38 318 38.5 311.167 38.5 299.5V40.5C38.5 28.8333 38 22 37 20C36 18 32.8333 16.6667 27.5 16L2.08616e-07 13.5V-3.57628e-06H233V81.5H220.5L206 29C205 25 203.833 22.1667 202.5 20.5C201.5 18.5 199.333 17.3333 196 17C192.667 16.3333 187 16 179 16H82V160.5H149C157 160.5 162.667 160.333 166 160C169.333 159.333 171.5 158.167 172.5 156.5C173.833 154.5 175 151.5 176 147.5L185.5 110H198.5V227H185.5L176 189.5C175 185.5 173.833 182.667 172.5 181C171.5 179 169.333 177.833 166 177.5C162.667 176.833 157 176.5 149 176.5H82V324H185C193 324 198.667 323.833 202 323.5C205.333 322.833 207.5 321.667 208.5 320C209.833 318 211 315 212 311L226.5 258.5ZM671.539 327V340H551.039V327L578.539 324C583.872 323.333 587.039 322 588.039 320C589.039 317.667 589.539 310.833 589.539 299.5V28.5L485.539 300H451.539L347.039 28.5V299.5C347.039 310.833 347.539 317.667 348.539 320C349.539 322 352.706 323.333 358.039 324L385.539 327V340H290.039V327L317.539 324C322.872 323.333 326.039 322 327.039 320C328.039 317.667 328.539 310.833 328.539 299.5V40.5C328.539 29.1667 328.039 22.5 327.039 20.5C326.039 18.1666 322.872 16.6667 317.539 16L290.039 13.5V-3.57628e-06H381.539L482.039 262.5L582.539 -3.57628e-06H671.539V13.5L644.039 16C638.706 16.6667 635.539 18.1666 634.539 20.5C633.539 22.5 633.039 29.1667 633.039 40.5V299.5C633.039 310.833 633.539 317.667 634.539 320C635.539 322 638.706 323.333 644.039 324L671.539 327Z" fill="white"/>
</svg>
